<svg id="visual" viewBox="0 0 900 600" width="900" height="600" xmlns="http://www.w3.org/2000/svg" xmlns:xlink="http://www.w3.org/1999/xlink" version="1.1"><rect x="0" y="0" width="900" height="600" fill="#0a121a"></rect><defs><linearGradient id="grad1_0" x1="33.3%" y1="0%" x2="100%" y2="100%"><stop offset="20%" stop-color="#0a121a" stop-opacity="1"></stop><stop offset="80%" stop-color="#0a121a" stop-opacity="1"></stop></linearGradient></defs><defs><linearGradient id="grad2_0" x1="0%" y1="0%" x2="66.7%" y2="100%"><stop offset="20%" stop-color="#0a121a" stop-opacity="1"></stop><stop offset="80%" stop-color="#0a121a" stop-opacity="1"></stop></linearGradient></defs><g transform="translate(900, 0)"><path d="M0 243.4C-19.1 244.2 -38.3 245 -54.2 237.3C-70.1 229.5 -82.7 213.1 -97.2 201.8C-111.7 190.5 -127.9 184.2 -135.9 170.4C-143.9 156.7 -143.7 135.5 -153.2 122.2C-162.7 108.9 -181.9 103.6 -191.9 92.4C-201.9 81.2 -202.6 64.2 -209.6 47.8C-216.6 31.5 -230 15.7 -243.4 0L0 0Z" fill="#ff4040"></path></g><g transform="translate(0, 600)"><path d="M0 -243.4C19.2 -244.5 38.4 -245.6 54.2 -237.3C69.9 -229 82.1 -211.3 97.2 -201.8C112.3 -192.4 130.4 -191.2 146.5 -183.7C162.6 -176.2 176.8 -162.4 181.4 -144.6C186 -126.9 181.1 -105.1 184.7 -88.9C188.3 -72.8 200.4 -62.2 211.6 -48.3C222.8 -34.4 233.1 -17.2 243.4 0L0 0Z" fill="#ff4040"></path></g></svg>